<svg height="512pt" viewBox="0 0 512 512" width="512pt" xmlns="http://www.w3.org/2000/svg">
  <style>
    @keyframes twist {
      from {
        transform: rotate(0);
      }

      to {
        transform: rotate(360deg);
      }
    }

    #outer {
      animation: cubic-bezier(0, 1.49, 1, -0.27) 10s twist infinite;
      transform-origin: center;
    }
  </style>
  
  <path id='inner' fill='#00F0FF' d="m256 131c-68.925781 0-125 56.074219-125 125s56.074219 125 125 125 125-56.074219 125-125-56.074219-125-125-125zm0 140c-8.269531 0-15-6.730469-15-15s6.730469-15 15-15 15 6.730469 15 15-6.730469 15-15 15zm19.390625-55.601562c-1.425781-.683594-2.890625-1.285157-4.390625-1.820313v-51.390625c15.023438 2.394531 28.882812 8.320312 40.695312 16.902344zm-34.390625-1.820313c-1.5.535156-2.96875 1.136719-4.390625 1.820313l-36.304687-36.308594c11.8125-8.578125 25.671874-14.507813 40.695312-16.902344zm-25.601562 23.03125c-.683594 1.425781-1.285157 2.890625-1.820313 4.390625h-51.390625c2.394531-15.023438 8.320312-28.882812 16.902344-40.695312zm-1.820313 34.390625c.535156 1.5 1.136719 2.96875 1.820313 4.390625l-36.308594 36.304687c-8.578125-11.8125-14.507813-25.671874-16.902344-40.695312zm23.03125 25.601562c1.425781.683594 2.890625 1.285157 4.390625 1.820313v51.390625c-15.023438-2.394531-28.882812-8.320312-40.695312-16.902344zm34.390625 1.820313c1.5-.535156 2.96875-1.136719 4.390625-1.820313l36.304687 36.308594c-11.8125 8.578125-25.671874 14.507813-40.695312 16.902344zm25.601562-23.03125c.683594-1.425781 1.285157-2.890625 1.820313-4.390625h51.390625c-2.394531 15.023438-8.320312 28.882812-16.902344 40.695312zm1.820313-34.390625c-.535156-1.5-1.136719-2.96875-1.820313-4.390625l36.308594-36.304687c8.578125 11.8125 14.507813 25.671874 16.902344 40.695312zm0 0"/>
  <path id='outer' fill='#4800CB' d="m512 301v-90h-76.546875c-4.472656-17.839844-11.542969-34.65625-20.785156-50.03125l54.171875-54.167969-63.640625-63.640625-54.171875 54.171875c-15.371094-9.242187-32.1875-16.3125-50.027344-20.785156v-76.546875h-90v76.546875c-17.839844 4.472656-34.65625 11.542969-50.03125 20.785156l-54.167969-54.171875-63.640625 63.640625 54.167969 54.171875c-9.238281 15.371094-16.308594 32.1875-20.785156 50.027344h-76.542969v90h76.546875c4.472656 17.839844 11.542969 34.65625 20.785156 50.03125l-54.171875 54.167969 63.640625 63.640625 54.171875-54.167969c15.371094 9.238281 32.1875 16.308594 50.027344 20.785156v76.542969h90v-76.546875c17.839844-4.472656 34.65625-11.542969 50.03125-20.785156l54.167969 54.171875 63.640625-63.640625-54.167969-54.171875c9.238281-15.371094 16.308594-32.1875 20.785156-50.027344zm-30-60v30h-41.609375c.398437-4.949219.609375-9.949219.609375-15s-.210938-10.050781-.609375-15zm-226 170c-85.46875 0-155-69.53125-155-155s69.53125-155 155-155c75.066406 0 137.835938 53.644531 152 124.605469v60.789062c-14.164062 70.960938-76.933594 124.605469-152 124.605469zm149.199219-325.414062 21.214843 21.214843-29.488281 29.488281c-6.492187-7.628906-13.585937-14.722656-21.214843-21.214843zm-164.199219-55.585938h30v41.609375c-4.949219-.398437-9.949219-.609375-15-.609375s-10.050781.210938-15 .609375zm-155.414062 76.800781 21.214843-21.214843 29.488281 29.488281c-7.628906 6.492187-14.722656 13.585937-21.214843 21.214843zm-55.585938 164.199219v-30h41.609375c-.398437 4.949219-.609375 9.949219-.609375 15s.210938 10.050781.609375 15zm76.800781 155.414062-21.214843-21.214843 29.488281-29.488281c6.492187 7.628906 13.585937 14.722656 21.214843 21.214843zm164.199219 55.585938h-30v-41.609375c4.949219.398437 9.949219.609375 15 .609375s10.050781-.210938 15-.609375zm155.414062-76.800781-21.214843 21.214843-29.488281-29.488281c7.628906-6.492187 14.722656-13.585937 21.214843-21.214843zm0 0"/>
</svg>